<svg width="1574" height="1474" viewBox="0 0 1574 1474" fill="none" xmlns="http://www.w3.org/2000/svg">
<g clip-path="url(#clip0_25_3534)">
<path style="mix-blend-mode:overlay" opacity="0.3" d="M849.5 36V764" stroke="url(#paint0_linear_25_3534)"/>
<path style="mix-blend-mode:overlay" opacity="0.3" d="M829.5 36V764" stroke="url(#paint1_linear_25_3534)"/>
<path style="mix-blend-mode:overlay" opacity="0.3" d="M597.5 376V768" stroke="url(#paint2_linear_25_3534)"/>
<path style="mix-blend-mode:overlay" opacity="0.3" d="M439.5 430V768" stroke="url(#paint3_linear_25_3534)"/>
<path style="mix-blend-mode:overlay" opacity="0.3" d="M577.5 376V768" stroke="url(#paint4_linear_25_3534)"/>
<path style="mix-blend-mode:overlay" opacity="0.3" d="M419.5 435V768" stroke="url(#paint5_linear_25_3534)"/>
<path style="mix-blend-mode:overlay" opacity="0.3" d="M1017.5 36V765" stroke="url(#paint6_linear_25_3534)"/>
<path style="mix-blend-mode:overlay" opacity="0.3" d="M1037.5 0V870" stroke="url(#paint7_linear_25_3534)"/>
<path style="mix-blend-mode:overlay" opacity="0.3" d="M1117.5 0V1474" stroke="url(#paint8_linear_25_3534)"/>
<path style="mix-blend-mode:overlay" opacity="0.3" d="M1381.5 0V1474" stroke="url(#paint9_linear_25_3534)"/>
<path style="mix-blend-mode:overlay" opacity="0.3" d="M1097.5 0V1474" stroke="url(#paint10_linear_25_3534)"/>
<path style="mix-blend-mode:overlay" opacity="0.3" d="M1361.5 0V1474" stroke="url(#paint11_linear_25_3534)"/>
<path style="mix-blend-mode:overlay" opacity="0.3" d="M1574 254.5H718" stroke="url(#paint12_linear_25_3534)"/>
<path style="mix-blend-mode:overlay" opacity="0.3" d="M1574 234.5H718" stroke="url(#paint13_linear_25_3534)"/>
<path style="mix-blend-mode:overlay" opacity="0.3" d="M1574 390H750" stroke="url(#paint14_linear_25_3534)"/>
<path style="mix-blend-mode:overlay" opacity="0.3" d="M1574 410H750" stroke="url(#paint15_linear_25_3534)"/>
<path style="mix-blend-mode:overlay" opacity="0.3" d="M1574 514.5H264" stroke="url(#paint16_linear_25_3534)"/>
<path style="mix-blend-mode:overlay" opacity="0.3" d="M1574 644.5H0" stroke="url(#paint17_linear_25_3534)"/>
<path style="mix-blend-mode:overlay" opacity="0.3" d="M1574 750.5H1031" stroke="url(#paint18_linear_25_3534)"/>
<path style="mix-blend-mode:overlay" opacity="0.3" d="M1574 967.5H1031" stroke="url(#paint19_linear_25_3534)"/>
<path style="mix-blend-mode:overlay" opacity="0.3" d="M1574 1156.5H1031" stroke="url(#paint20_linear_25_3534)"/>
<path style="mix-blend-mode:overlay" opacity="0.3" d="M1574 534.5H264" stroke="url(#paint21_linear_25_3534)"/>
<path style="mix-blend-mode:overlay" opacity="0.3" d="M1574 664.5H0" stroke="url(#paint22_linear_25_3534)"/>
<path style="mix-blend-mode:overlay" opacity="0.3" d="M1574 770.5H1031" stroke="url(#paint23_linear_25_3534)"/>
<path style="mix-blend-mode:overlay" opacity="0.3" d="M1574 987.5H1031" stroke="url(#paint24_linear_25_3534)"/>
<path style="mix-blend-mode:overlay" opacity="0.3" d="M1574 1176.5H1031" stroke="url(#paint25_linear_25_3534)"/>
<path style="mix-blend-mode:overlay" opacity="0.2" d="M318.111 521H255.889C253.741 521 252 523.239 252 526V586C252 588.761 253.741 591 255.889 591H318.111C320.259 591 322 588.761 322 586V526C322 523.239 320.259 521 318.111 521Z" fill="url(#paint26_linear_25_3534)"/>
<path style="mix-blend-mode:overlay" opacity="0.5" d="M318.36 521H255.64C253.63 521 252 523.07 252 525.624V585.376C252 587.93 253.63 590 255.64 590H318.36C320.37 590 322 587.93 322 585.376V525.624C322 523.07 320.37 521 318.36 521Z" stroke="url(#paint27_linear_25_3534)"/>
<path style="mix-blend-mode:overlay" opacity="0.05" d="M879 670H859C856.791 670 855 671.791 855 674V694C855 696.209 856.791 698 859 698H879C881.209 698 883 696.209 883 694V674C883 671.791 881.209 670 879 670Z" fill="url(#paint28_linear_25_3534)"/>
<path style="mix-blend-mode:overlay" opacity="0.05" d="M911 670H891C888.791 670 887 671.791 887 674V694C887 696.209 888.791 698 891 698H911C913.209 698 915 696.209 915 694V674C915 671.791 913.209 670 911 670Z" fill="url(#paint29_linear_25_3534)"/>
<path style="mix-blend-mode:overlay" opacity="0.05" d="M943 670H923C920.791 670 919 671.791 919 674V694C919 696.209 920.791 698 923 698H943C945.209 698 947 696.209 947 694V674C947 671.791 945.209 670 943 670Z" fill="url(#paint30_linear_25_3534)"/>
<path style="mix-blend-mode:overlay" opacity="0.05" d="M975 670H955C952.791 670 951 671.791 951 674V694C951 696.209 952.791 698 955 698H975C977.209 698 979 696.209 979 694V674C979 671.791 977.209 670 975 670Z" fill="url(#paint31_linear_25_3534)"/>
<path style="mix-blend-mode:overlay" opacity="0.05" d="M1007 670H987C984.791 670 983 671.791 983 674V694C983 696.209 984.791 698 987 698H1007C1009.21 698 1011 696.209 1011 694V674C1011 671.791 1009.21 670 1007 670Z" fill="url(#paint32_linear_25_3534)"/>
<path style="mix-blend-mode:overlay" opacity="0.15" d="M1351 993H1127C1124.79 993 1123 994.791 1123 997V1146C1123 1148.21 1124.79 1150 1127 1150H1351C1353.21 1150 1355 1148.21 1355 1146V997C1355 994.791 1353.21 993 1351 993Z" fill="url(#paint33_linear_25_3534)"/>
<path style="mix-blend-mode:overlay" opacity="0.2" d="M1351 993.5H1127C1125.07 993.5 1123.5 995.067 1123.5 997V1146C1123.5 1147.93 1125.07 1149.5 1127 1149.5H1351C1352.93 1149.5 1354.5 1147.93 1354.5 1146V997C1354.5 995.067 1352.93 993.5 1351 993.5Z" stroke="url(#paint34_linear_25_3534)"/>
<path style="mix-blend-mode:overlay" opacity="0.15" d="M1338 927H1140C1130.61 927 1123 934.611 1123 944C1123 953.389 1130.61 961 1140 961H1338C1347.39 961 1355 953.389 1355 944C1355 934.611 1347.39 927 1338 927Z" fill="url(#paint35_linear_25_3534)"/>
<path style="mix-blend-mode:overlay" opacity="0.15" d="M1288 847H1157C1153.69 847 1151 849.686 1151 853V887C1151 890.314 1153.69 893 1157 893H1288C1291.31 893 1294 890.314 1294 887V853C1294 849.686 1291.31 847 1288 847Z" fill="url(#paint36_linear_25_3534)"/>
<path style="mix-blend-mode:overlay" opacity="0.7" d="M1157 847.5H1288C1291.04 847.5 1293.5 849.962 1293.5 853V887C1293.5 890.038 1291.04 892.5 1288 892.5H1157C1153.96 892.5 1151.5 890.038 1151.5 887V853C1151.5 849.962 1153.96 847.5 1157 847.5Z" stroke="url(#paint37_linear_25_3534)"/>
<path style="mix-blend-mode:overlay" opacity="0.15" d="M1321 776H1203C1199.69 776 1197 778.686 1197 782V829C1197 832.314 1199.69 835 1203 835H1321C1324.31 835 1327 832.314 1327 829V782C1327 778.686 1324.31 776 1321 776Z" fill="url(#paint38_linear_25_3534)"/>
<path style="mix-blend-mode:overlay" opacity="0.7" d="M1203 776.5H1321C1324.04 776.5 1326.5 778.962 1326.5 782V829C1326.5 832.038 1324.04 834.5 1321 834.5H1203C1199.96 834.5 1197.5 832.038 1197.5 829V782C1197.5 778.962 1199.96 776.5 1203 776.5Z" stroke="url(#paint39_linear_25_3534)"/>
<path style="mix-blend-mode:overlay" opacity="0.2" d="M1180.79 177H1025.21C1022.88 177 1021 179.311 1021 182.161V331.839C1021 334.689 1022.88 337 1025.21 337H1180.79C1183.12 337 1185 334.689 1185 331.839V182.161C1185 179.311 1183.12 177 1180.79 177Z" fill="url(#paint40_linear_25_3534)"/>
<path style="mix-blend-mode:overlay" opacity="0.7" d="M1181.3 177H1024.7C1022.66 177 1021 179.038 1021 181.553V332.447C1021 334.962 1022.66 337 1024.7 337H1181.3C1183.34 337 1185 334.962 1185 332.447V181.553C1185 179.038 1183.34 177 1181.3 177Z" stroke="url(#paint41_linear_25_3534)"/>
<path style="mix-blend-mode:overlay" opacity="0.2" d="M1180.79 347H1025.21C1022.88 347 1021 349.311 1021 352.161V501.839C1021 504.689 1022.88 507 1025.21 507H1180.79C1183.12 507 1185 504.689 1185 501.839V352.161C1185 349.311 1183.12 347 1180.79 347Z" fill="url(#paint42_linear_25_3534)"/>
<path style="mix-blend-mode:overlay" opacity="0.7" d="M1181.3 347H1024.7C1022.66 347 1021 349.038 1021 351.553V502.447C1021 504.962 1022.66 507 1024.7 507H1181.3C1183.34 507 1185 504.962 1185 502.447V351.553C1185 349.038 1183.34 347 1181.3 347Z" stroke="url(#paint43_linear_25_3534)"/>
<path style="mix-blend-mode:overlay" opacity="0.2" d="M1355.79 347H1200.21C1197.88 347 1196 349.311 1196 352.161V501.839C1196 504.689 1197.88 507 1200.21 507H1355.79C1358.12 507 1360 504.689 1360 501.839V352.161C1360 349.311 1358.12 347 1355.79 347Z" fill="url(#paint44_linear_25_3534)"/>
<path style="mix-blend-mode:overlay" opacity="0.7" d="M1356.3 347H1199.7C1197.66 347 1196 349.038 1196 351.553V502.447C1196 504.962 1197.66 507 1199.7 507H1356.3C1358.34 507 1360 504.962 1360 502.447V351.553C1360 349.038 1358.34 347 1356.3 347Z" stroke="url(#paint45_linear_25_3534)"/>
<path style="mix-blend-mode:overlay" opacity="0.2" d="M1355.79 177H1200.21C1197.88 177 1196 179.311 1196 182.161V331.839C1196 334.689 1197.88 337 1200.21 337H1355.79C1358.12 337 1360 334.689 1360 331.839V182.161C1360 179.311 1358.12 177 1355.79 177Z" fill="url(#paint46_linear_25_3534)"/>
<path style="mix-blend-mode:overlay" opacity="0.7" d="M1356.3 177H1199.7C1197.66 177 1196 179.038 1196 181.553V332.447C1196 334.962 1197.66 337 1199.7 337H1356.3C1358.34 337 1360 334.962 1360 332.447V181.553C1360 179.038 1358.34 177 1356.3 177Z" stroke="url(#paint47_linear_25_3534)"/>
<path style="mix-blend-mode:overlay" opacity="0.2" d="M396.111 521H333.889C331.741 521 330 523.239 330 526V586C330 588.761 331.741 591 333.889 591H396.111C398.259 591 400 588.761 400 586V526C400 523.239 398.259 521 396.111 521Z" fill="url(#paint48_linear_25_3534)"/>
<path style="mix-blend-mode:overlay" opacity="0.5" d="M396.36 521H333.64C331.63 521 330 523.07 330 525.624V585.376C330 587.93 331.63 590 333.64 590H396.36C398.37 590 400 587.93 400 585.376V525.624C400 523.07 398.37 521 396.36 521Z" stroke="url(#paint49_linear_25_3534)"/>
<path style="mix-blend-mode:overlay" opacity="0.2" d="M396.111 596H333.889C331.741 596 330 598.239 330 601V661C330 663.761 331.741 666 333.889 666H396.111C398.259 666 400 663.761 400 661V601C400 598.239 398.259 596 396.111 596Z" fill="url(#paint50_linear_25_3534)"/>
<path style="mix-blend-mode:overlay" opacity="0.5" d="M396.36 596H333.64C331.63 596 330 598.07 330 600.624V660.376C330 662.93 331.63 665 333.64 665H396.36C398.37 665 400 662.93 400 660.376V600.624C400 598.07 398.37 596 396.36 596Z" stroke="url(#paint51_linear_25_3534)"/>
<path style="mix-blend-mode:overlay" opacity="0.2" d="M318.111 596H255.889C253.741 596 252 598.239 252 601V661C252 663.761 253.741 666 255.889 666H318.111C320.259 666 322 663.761 322 661V601C322 598.239 320.259 596 318.111 596Z" fill="url(#paint52_linear_25_3534)"/>
<path style="mix-blend-mode:overlay" opacity="0.5" d="M318.36 596H255.64C253.63 596 252 598.07 252 600.624V660.376C252 662.93 253.63 665 255.64 665H318.36C320.37 665 322 662.93 322 660.376V600.624C322 598.07 320.37 596 318.36 596Z" stroke="url(#paint53_linear_25_3534)"/>
<path style="mix-blend-mode:overlay" opacity="0.15" d="M377.092 53H201.908C196.994 53 193 55.686 193 59V106C193 109.314 196.994 112 201.908 112H377.092C382.006 112 386 109.314 386 106V59C386 55.686 382.006 53 377.092 53Z" fill="url(#paint54_linear_25_3534)"/>
<path style="mix-blend-mode:overlay" opacity="0.7" d="M202.143 54H376.857C381.358 54 385 56.462 385 59.5V106.5C385 109.538 381.358 112 376.857 112H202.143C197.642 112 194 109.538 194 106.5V59.5C194 56.462 197.642 54 202.143 54Z" stroke="url(#paint55_linear_25_3534)"/>
</g>
<defs>
<linearGradient id="paint0_linear_25_3534" x1="nan" y1="nan" x2="nan" y2="nan" gradientUnits="userSpaceOnUse">
<stop offset="0.124" stop-color="white" stop-opacity="0"/>
<stop offset="0.216" stop-color="white"/>
<stop offset="0.862" stop-color="white"/>
<stop offset="0.95" stop-color="white" stop-opacity="0"/>
</linearGradient>
<linearGradient id="paint1_linear_25_3534" x1="nan" y1="nan" x2="nan" y2="nan" gradientUnits="userSpaceOnUse">
<stop offset="0.14" stop-color="white" stop-opacity="0"/>
<stop offset="0.263" stop-color="white"/>
<stop offset="0.84" stop-color="white"/>
<stop offset="0.928" stop-color="white" stop-opacity="0"/>
</linearGradient>
<linearGradient id="paint2_linear_25_3534" x1="nan" y1="nan" x2="nan" y2="nan" gradientUnits="userSpaceOnUse">
<stop stop-color="white" stop-opacity="0"/>
<stop offset="0.142" stop-color="white"/>
<stop offset="0.725" stop-color="white"/>
<stop offset="0.844" stop-color="white" stop-opacity="0"/>
</linearGradient>
<linearGradient id="paint3_linear_25_3534" x1="nan" y1="nan" x2="nan" y2="nan" gradientUnits="userSpaceOnUse">
<stop stop-color="white" stop-opacity="0"/>
<stop offset="0.142" stop-color="white"/>
<stop offset="0.735" stop-color="white"/>
<stop offset="0.875" stop-color="white" stop-opacity="0"/>
</linearGradient>
<linearGradient id="paint4_linear_25_3534" x1="nan" y1="nan" x2="nan" y2="nan" gradientUnits="userSpaceOnUse">
<stop stop-color="white" stop-opacity="0"/>
<stop offset="0.142" stop-color="white"/>
<stop offset="0.745" stop-color="white"/>
<stop offset="0.886" stop-color="white" stop-opacity="0"/>
</linearGradient>
<linearGradient id="paint5_linear_25_3534" x1="nan" y1="nan" x2="nan" y2="nan" gradientUnits="userSpaceOnUse">
<stop stop-color="white" stop-opacity="0"/>
<stop offset="0.142" stop-color="white"/>
<stop offset="0.78" stop-color="white"/>
<stop offset="0.886" stop-color="white" stop-opacity="0"/>
</linearGradient>
<linearGradient id="paint6_linear_25_3534" x1="nan" y1="nan" x2="nan" y2="nan" gradientUnits="userSpaceOnUse">
<stop offset="0.133" stop-color="white" stop-opacity="0"/>
<stop offset="0.212" stop-color="white"/>
<stop offset="0.897" stop-color="white"/>
<stop offset="0.974" stop-color="white" stop-opacity="0"/>
</linearGradient>
<linearGradient id="paint7_linear_25_3534" x1="nan" y1="nan" x2="nan" y2="nan" gradientUnits="userSpaceOnUse">
<stop offset="0.165" stop-color="white" stop-opacity="0"/>
<stop offset="0.287" stop-color="white"/>
<stop offset="0.805" stop-color="white"/>
<stop offset="0.874" stop-color="white" stop-opacity="0"/>
</linearGradient>
<linearGradient id="paint8_linear_25_3534" x1="nan" y1="nan" x2="nan" y2="nan" gradientUnits="userSpaceOnUse">
<stop offset="0.083" stop-color="white" stop-opacity="0"/>
<stop offset="0.137" stop-color="white"/>
<stop offset="0.46" stop-color="white"/>
<stop offset="0.538" stop-color="white" stop-opacity="0.5"/>
<stop offset="0.774" stop-color="white" stop-opacity="0.3"/>
<stop offset="1" stop-color="white" stop-opacity="0"/>
</linearGradient>
<linearGradient id="paint9_linear_25_3534" x1="nan" y1="nan" x2="nan" y2="nan" gradientUnits="userSpaceOnUse">
<stop offset="0.083" stop-color="white" stop-opacity="0"/>
<stop offset="0.137" stop-color="white"/>
<stop offset="0.813" stop-color="white"/>
<stop offset="0.946" stop-color="white" stop-opacity="0"/>
</linearGradient>
<linearGradient id="paint10_linear_25_3534" x1="nan" y1="nan" x2="nan" y2="nan" gradientUnits="userSpaceOnUse">
<stop offset="0.083" stop-color="white" stop-opacity="0"/>
<stop offset="0.137" stop-color="white"/>
<stop offset="0.46" stop-color="white"/>
<stop offset="0.538" stop-color="white" stop-opacity="0.5"/>
<stop offset="0.774" stop-color="white" stop-opacity="0.1"/>
<stop offset="1" stop-color="white" stop-opacity="0"/>
</linearGradient>
<linearGradient id="paint11_linear_25_3534" x1="nan" y1="nan" x2="nan" y2="nan" gradientUnits="userSpaceOnUse">
<stop offset="0.083" stop-color="white" stop-opacity="0"/>
<stop offset="0.137" stop-color="white"/>
<stop offset="0.813" stop-color="white"/>
<stop offset="0.946" stop-color="white" stop-opacity="0"/>
</linearGradient>
<linearGradient id="paint12_linear_25_3534" x1="nan" y1="nan" x2="nan" y2="nan" gradientUnits="userSpaceOnUse">
<stop offset="0.058" stop-color="white" stop-opacity="0"/>
<stop offset="0.121" stop-color="white"/>
<stop offset="0.742" stop-color="white"/>
<stop offset="0.849" stop-color="white" stop-opacity="0"/>
</linearGradient>
<linearGradient id="paint13_linear_25_3534" x1="nan" y1="nan" x2="nan" y2="nan" gradientUnits="userSpaceOnUse">
<stop offset="0.063" stop-color="white" stop-opacity="0"/>
<stop offset="0.121" stop-color="white"/>
<stop offset="0.741" stop-color="white"/>
<stop offset="0.862" stop-color="white" stop-opacity="0"/>
</linearGradient>
<linearGradient id="paint14_linear_25_3534" x1="nan" y1="nan" x2="nan" y2="nan" gradientUnits="userSpaceOnUse">
<stop offset="0.027" stop-color="white" stop-opacity="0"/>
<stop offset="0.097" stop-color="white"/>
<stop offset="0.763" stop-color="white"/>
<stop offset="0.849" stop-color="white" stop-opacity="0"/>
</linearGradient>
<linearGradient id="paint15_linear_25_3534" x1="nan" y1="nan" x2="nan" y2="nan" gradientUnits="userSpaceOnUse">
<stop offset="0.03" stop-color="white" stop-opacity="0"/>
<stop offset="0.106" stop-color="white"/>
<stop offset="0.739" stop-color="white"/>
<stop offset="0.846" stop-color="white" stop-opacity="0"/>
</linearGradient>
<linearGradient id="paint16_linear_25_3534" x1="nan" y1="nan" x2="nan" y2="nan" gradientUnits="userSpaceOnUse">
<stop stop-color="white" stop-opacity="0"/>
<stop offset="0.073" stop-color="white"/>
<stop offset="0.239" stop-color="white"/>
<stop offset="0.274" stop-color="white" stop-opacity="0.28"/>
<stop offset="0.307" stop-color="white" stop-opacity="0"/>
<stop offset="0.391" stop-color="white" stop-opacity="0"/>
<stop offset="0.419" stop-color="white" stop-opacity="0.7"/>
<stop offset="0.453" stop-color="white"/>
<stop offset="0.84" stop-color="white"/>
<stop offset="0.902" stop-color="white" stop-opacity="0"/>
</linearGradient>
<linearGradient id="paint17_linear_25_3534" x1="nan" y1="nan" x2="nan" y2="nan" gradientUnits="userSpaceOnUse">
<stop offset="0.028" stop-color="white" stop-opacity="0"/>
<stop offset="0.097" stop-color="white"/>
<stop offset="0.366" stop-color="white"/>
<stop offset="0.396" stop-color="white" stop-opacity="0.29"/>
<stop offset="0.42" stop-color="white" stop-opacity="0"/>
<stop offset="0.482" stop-color="white" stop-opacity="0"/>
<stop offset="0.512" stop-color="white" stop-opacity="0.29"/>
<stop offset="0.544" stop-color="white"/>
<stop offset="0.868" stop-color="white"/>
<stop offset="0.919" stop-color="white" stop-opacity="0"/>
</linearGradient>
<linearGradient id="paint18_linear_25_3534" x1="nan" y1="nan" x2="nan" y2="nan" gradientUnits="userSpaceOnUse">
<stop offset="0.066" stop-color="white" stop-opacity="0"/>
<stop offset="0.186" stop-color="white"/>
<stop offset="0.672" stop-color="white"/>
<stop offset="0.791" stop-color="white" stop-opacity="0"/>
</linearGradient>
<linearGradient id="paint19_linear_25_3534" x1="nan" y1="nan" x2="nan" y2="nan" gradientUnits="userSpaceOnUse">
<stop offset="0.099" stop-color="white" stop-opacity="0"/>
<stop offset="0.189" stop-color="white"/>
<stop offset="0.652" stop-color="white"/>
<stop offset="0.75" stop-color="white" stop-opacity="0"/>
</linearGradient>
<linearGradient id="paint20_linear_25_3534" x1="nan" y1="nan" x2="nan" y2="nan" gradientUnits="userSpaceOnUse">
<stop offset="0.099" stop-color="white" stop-opacity="0"/>
<stop offset="0.189" stop-color="white"/>
<stop offset="0.652" stop-color="white"/>
<stop offset="0.75" stop-color="white" stop-opacity="0"/>
</linearGradient>
<linearGradient id="paint21_linear_25_3534" x1="nan" y1="nan" x2="nan" y2="nan" gradientUnits="userSpaceOnUse">
<stop offset="0.004" stop-color="white" stop-opacity="0"/>
<stop offset="0.037" stop-color="white"/>
<stop offset="0.241" stop-color="white"/>
<stop offset="0.274" stop-color="white" stop-opacity="0.3"/>
<stop offset="0.307" stop-color="white" stop-opacity="0"/>
<stop offset="0.382" stop-color="white" stop-opacity="0"/>
<stop offset="0.415" stop-color="white" stop-opacity="0.34"/>
<stop offset="0.443" stop-color="white"/>
<stop offset="0.839" stop-color="white"/>
<stop offset="0.908" stop-color="white" stop-opacity="0"/>
</linearGradient>
<linearGradient id="paint22_linear_25_3534" x1="nan" y1="nan" x2="nan" y2="nan" gradientUnits="userSpaceOnUse">
<stop stop-color="white" stop-opacity="0"/>
<stop offset="0.082" stop-color="white"/>
<stop offset="0.347" stop-color="white"/>
<stop offset="0.392" stop-color="white" stop-opacity="0.31"/>
<stop offset="0.413" stop-color="white" stop-opacity="0"/>
<stop offset="0.484" stop-color="white" stop-opacity="0"/>
<stop offset="0.512" stop-color="white" stop-opacity="0.24"/>
<stop offset="0.547" stop-color="white"/>
<stop offset="0.871" stop-color="white"/>
<stop offset="0.937" stop-color="white" stop-opacity="0"/>
</linearGradient>
<linearGradient id="paint23_linear_25_3534" x1="nan" y1="nan" x2="nan" y2="nan" gradientUnits="userSpaceOnUse">
<stop offset="0.088" stop-color="white" stop-opacity="0"/>
<stop offset="0.206" stop-color="white"/>
<stop offset="0.672" stop-color="white"/>
<stop offset="0.786" stop-color="white" stop-opacity="0"/>
</linearGradient>
<linearGradient id="paint24_linear_25_3534" x1="nan" y1="nan" x2="nan" y2="nan" gradientUnits="userSpaceOnUse">
<stop offset="0.099" stop-color="white" stop-opacity="0"/>
<stop offset="0.2" stop-color="white"/>
<stop offset="0.652" stop-color="white"/>
<stop offset="0.75" stop-color="white" stop-opacity="0"/>
</linearGradient>
<linearGradient id="paint25_linear_25_3534" x1="nan" y1="nan" x2="nan" y2="nan" gradientUnits="userSpaceOnUse">
<stop offset="0.099" stop-color="white" stop-opacity="0"/>
<stop offset="0.189" stop-color="white"/>
<stop offset="0.652" stop-color="white"/>
<stop offset="0.75" stop-color="white" stop-opacity="0"/>
</linearGradient>
<linearGradient id="paint26_linear_25_3534" x1="252" y1="521" x2="334.247" y2="570.755" gradientUnits="userSpaceOnUse">
<stop stop-color="white" stop-opacity="0.2"/>
<stop offset="0.699" stop-color="white"/>
</linearGradient>
<linearGradient id="paint27_linear_25_3534" x1="251.72" y1="520.644" x2="334.085" y2="571.076" gradientUnits="userSpaceOnUse">
<stop stop-color="white" stop-opacity="0.2"/>
<stop offset="0.858" stop-color="white"/>
</linearGradient>
<linearGradient id="paint28_linear_25_3534" x1="869" y1="670" x2="869" y2="698" gradientUnits="userSpaceOnUse">
<stop stop-color="white" stop-opacity="0.5"/>
<stop offset="1" stop-color="white"/>
</linearGradient>
<linearGradient id="paint29_linear_25_3534" x1="901" y1="670" x2="901" y2="698" gradientUnits="userSpaceOnUse">
<stop stop-color="white" stop-opacity="0.5"/>
<stop offset="1" stop-color="white"/>
</linearGradient>
<linearGradient id="paint30_linear_25_3534" x1="933" y1="670" x2="933" y2="698" gradientUnits="userSpaceOnUse">
<stop stop-color="white" stop-opacity="0.5"/>
<stop offset="1" stop-color="white"/>
</linearGradient>
<linearGradient id="paint31_linear_25_3534" x1="965" y1="670" x2="965" y2="698" gradientUnits="userSpaceOnUse">
<stop stop-color="white" stop-opacity="0.5"/>
<stop offset="1" stop-color="white"/>
</linearGradient>
<linearGradient id="paint32_linear_25_3534" x1="997" y1="670" x2="997" y2="698" gradientUnits="userSpaceOnUse">
<stop stop-color="white" stop-opacity="0.5"/>
<stop offset="1" stop-color="white"/>
</linearGradient>
<linearGradient id="paint33_linear_25_3534" x1="1123" y1="1117" x2="1355" y2="1042" gradientUnits="userSpaceOnUse">
<stop stop-color="white"/>
<stop offset="1" stop-color="white" stop-opacity="0.5"/>
</linearGradient>
<linearGradient id="paint34_linear_25_3534" x1="1123" y1="1130.5" x2="1355" y2="1023.5" gradientUnits="userSpaceOnUse">
<stop stop-color="white"/>
<stop offset="1" stop-color="white" stop-opacity="0.5"/>
</linearGradient>
<linearGradient id="paint35_linear_25_3534" x1="1123" y1="961" x2="1355" y2="944" gradientUnits="userSpaceOnUse">
<stop stop-color="white"/>
<stop offset="0.674" stop-color="white" stop-opacity="0.8"/>
</linearGradient>
<linearGradient id="paint36_linear_25_3534" x1="1263.75" y1="847" x2="1239.56" y2="900.687" gradientUnits="userSpaceOnUse">
<stop stop-color="white" stop-opacity="0.7"/>
<stop offset="1" stop-color="white"/>
</linearGradient>
<linearGradient id="paint37_linear_25_3534" x1="1258.25" y1="847" x2="1237.94" y2="899.027" gradientUnits="userSpaceOnUse">
<stop stop-color="white" stop-opacity="0.7"/>
<stop offset="1" stop-color="white"/>
</linearGradient>
<linearGradient id="paint38_linear_25_3534" x1="1299.5" y1="776" x2="1262" y2="835" gradientUnits="userSpaceOnUse">
<stop stop-color="white" stop-opacity="0.7"/>
<stop offset="1" stop-color="white"/>
</linearGradient>
<linearGradient id="paint39_linear_25_3534" x1="1294.5" y1="776" x2="1262" y2="835" gradientUnits="userSpaceOnUse">
<stop stop-color="white" stop-opacity="0.7"/>
<stop offset="1" stop-color="white"/>
</linearGradient>
<linearGradient id="paint40_linear_25_3534" x1="1021" y1="337" x2="1202.52" y2="243.145" gradientUnits="userSpaceOnUse">
<stop stop-color="white"/>
<stop offset="1" stop-color="white" stop-opacity="0.6"/>
</linearGradient>
<linearGradient id="paint41_linear_25_3534" x1="1185.53" y1="176.35" x2="1036.79" y2="306.798" gradientUnits="userSpaceOnUse">
<stop stop-color="white" stop-opacity="0.6"/>
<stop offset="1" stop-color="white"/>
</linearGradient>
<linearGradient id="paint42_linear_25_3534" x1="1021" y1="507" x2="1202.52" y2="413.145" gradientUnits="userSpaceOnUse">
<stop stop-color="white"/>
<stop offset="1" stop-color="white" stop-opacity="0.6"/>
</linearGradient>
<linearGradient id="paint43_linear_25_3534" x1="1185.53" y1="346.35" x2="1036.79" y2="476.798" gradientUnits="userSpaceOnUse">
<stop stop-color="white" stop-opacity="0.6"/>
<stop offset="1" stop-color="white"/>
</linearGradient>
<linearGradient id="paint44_linear_25_3534" x1="1196" y1="507" x2="1377.52" y2="413.145" gradientUnits="userSpaceOnUse">
<stop stop-color="white"/>
<stop offset="1" stop-color="white" stop-opacity="0.6"/>
</linearGradient>
<linearGradient id="paint45_linear_25_3534" x1="1360.53" y1="346.35" x2="1211.79" y2="476.798" gradientUnits="userSpaceOnUse">
<stop stop-color="white" stop-opacity="0.6"/>
<stop offset="1" stop-color="white"/>
</linearGradient>
<linearGradient id="paint46_linear_25_3534" x1="1196" y1="337" x2="1377.52" y2="243.145" gradientUnits="userSpaceOnUse">
<stop stop-color="white"/>
<stop offset="1" stop-color="white" stop-opacity="0.6"/>
</linearGradient>
<linearGradient id="paint47_linear_25_3534" x1="1360.53" y1="176.35" x2="1211.79" y2="306.798" gradientUnits="userSpaceOnUse">
<stop stop-color="white" stop-opacity="0.6"/>
<stop offset="1" stop-color="white"/>
</linearGradient>
<linearGradient id="paint48_linear_25_3534" x1="330" y1="521" x2="412.247" y2="570.755" gradientUnits="userSpaceOnUse">
<stop stop-color="white" stop-opacity="0.2"/>
<stop offset="0.699" stop-color="white"/>
</linearGradient>
<linearGradient id="paint49_linear_25_3534" x1="329.72" y1="520.644" x2="412.085" y2="571.076" gradientUnits="userSpaceOnUse">
<stop stop-color="white" stop-opacity="0.2"/>
<stop offset="0.858" stop-color="white"/>
</linearGradient>
<linearGradient id="paint50_linear_25_3534" x1="330" y1="596" x2="412.247" y2="645.755" gradientUnits="userSpaceOnUse">
<stop stop-color="white" stop-opacity="0.2"/>
<stop offset="0.699" stop-color="white"/>
</linearGradient>
<linearGradient id="paint51_linear_25_3534" x1="329.72" y1="595.644" x2="412.085" y2="646.076" gradientUnits="userSpaceOnUse">
<stop stop-color="white" stop-opacity="0.2"/>
<stop offset="0.858" stop-color="white"/>
</linearGradient>
<linearGradient id="paint52_linear_25_3534" x1="252" y1="596" x2="334.247" y2="645.755" gradientUnits="userSpaceOnUse">
<stop stop-color="white" stop-opacity="0.2"/>
<stop offset="0.699" stop-color="white"/>
</linearGradient>
<linearGradient id="paint53_linear_25_3534" x1="251.72" y1="595.644" x2="334.085" y2="646.076" gradientUnits="userSpaceOnUse">
<stop stop-color="white" stop-opacity="0.2"/>
<stop offset="0.858" stop-color="white"/>
</linearGradient>
<linearGradient id="paint54_linear_25_3534" x1="345.173" y1="53" x2="315.203" y2="123.004" gradientUnits="userSpaceOnUse">
<stop stop-color="white" stop-opacity="0.7"/>
<stop offset="1" stop-color="white"/>
</linearGradient>
<linearGradient id="paint55_linear_25_3534" x1="337.62" y1="53.5" x2="312.488" y2="121.052" gradientUnits="userSpaceOnUse">
<stop stop-color="white" stop-opacity="0.7"/>
<stop offset="1" stop-color="white"/>
</linearGradient>
<clipPath id="clip0_25_3534">
<rect width="1574" height="1474" fill="white"/>
</clipPath>
</defs>
</svg>
